<svg width="16" height="16" viewBox="0 0 16 16" fill="none" xmlns="http://www.w3.org/2000/svg">
<path d="M5.40752 4.4265C5.56352 4.29217 5.73035 4.1665 5.90802 4.0495C6.09002 3.9325 6.28502 3.83067 6.49302 3.744C6.70535 3.65733 6.93285 3.59017 7.17552 3.5425C7.42252 3.4905 7.68685 3.4645 7.96852 3.4645C8.35852 3.4645 8.71168 3.51867 9.02802 3.627C9.34435 3.731 9.61518 3.88267 9.84052 4.082C10.0658 4.277 10.2392 4.51317 10.3605 4.7905C10.4862 5.06783 10.549 5.37767 10.549 5.72C10.549 6.04933 10.5013 6.33533 10.406 6.578C10.315 6.81633 10.198 7.02433 10.055 7.202C9.91635 7.37967 9.76252 7.5335 9.59352 7.6635C9.42452 7.7935 9.26418 7.91483 9.11252 8.0275C8.96085 8.14017 8.82868 8.25283 8.71602 8.3655C8.60768 8.47383 8.54052 8.59517 8.51452 8.7295L8.35202 9.659H7.12352L7.00002 8.606C6.96968 8.398 6.99568 8.21817 7.07802 8.0665C7.16035 7.9105 7.27085 7.76967 7.40952 7.644C7.54818 7.514 7.70202 7.3905 7.87102 7.2735C8.04435 7.15217 8.20468 7.02433 8.35202 6.89C8.50368 6.75133 8.62935 6.5975 8.72902 6.4285C8.83302 6.25517 8.88502 6.0515 8.88502 5.8175C8.88502 5.5315 8.78535 5.304 8.58602 5.135C8.39102 4.966 8.13102 4.8815 7.80602 4.8815C7.56768 4.8815 7.36618 4.9075 7.20152 4.9595C7.04118 5.0115 6.90252 5.07 6.78552 5.135C6.66852 5.19567 6.56885 5.252 6.48652 5.304C6.40418 5.356 6.32618 5.382 6.25252 5.382C6.08785 5.382 5.96435 5.3105 5.88202 5.1675L5.40752 4.4265ZM6.62302 12.0575C6.62302 11.9145 6.64902 11.7802 6.70102 11.6545C6.75735 11.5245 6.83318 11.414 6.92852 11.323C7.02385 11.2277 7.13435 11.154 7.26002 11.102C7.39002 11.0457 7.53085 11.0175 7.68252 11.0175C7.82985 11.0175 7.96852 11.0457 8.09852 11.102C8.22852 11.154 8.34118 11.2277 8.43652 11.323C8.53185 11.414 8.60552 11.5245 8.65752 11.6545C8.71385 11.7802 8.74202 11.9145 8.74202 12.0575C8.74202 12.2048 8.71385 12.3413 8.65752 12.467C8.60552 12.5927 8.53185 12.7032 8.43652 12.7985C8.34118 12.8895 8.22852 12.961 8.09852 13.013C7.96852 13.065 7.82985 13.091 7.68252 13.091C7.53085 13.091 7.39002 13.065 7.26002 13.013C7.13435 12.961 7.02385 12.8895 6.92852 12.7985C6.83318 12.7032 6.75735 12.5927 6.70102 12.467C6.64902 12.3413 6.62302 12.2048 6.62302 12.0575Z" fill="white"/>
</svg>
