<svg width="84" height="45" viewBox="0 0 84 45" fill="none" xmlns="http://www.w3.org/2000/svg">
<g clip-path="url(#clip0)">
<path fill-rule="evenodd" clip-rule="evenodd" d="M37.1102 28.6388C37.7719 29.0267 39.9673 27.7373 40.4189 27.2865C40.5555 27.1712 40.629 26.9825 40.7235 26.8148C41.2382 25.9447 41.8475 24.8441 42.5827 24.1207C42.7088 23.995 42.8348 23.8796 42.9714 23.7329C43.2865 23.4079 43.1184 23.2402 42.6878 23.2612C42.3306 23.2821 41.921 23.4184 41.5008 23.649C40.2088 24.3409 38.7698 25.7665 38.1081 26.5318C37.5408 27.2027 37.0682 27.9365 37.1102 28.6388ZM28.4129 27.1188C28.7806 27.3494 29.978 26.993 30.9654 26.6052C32.2048 26.1125 33.6229 25.2529 34.4107 24.1732C34.5682 23.9635 34.9779 23.2402 34.6418 23.083C34.5997 23.083 34.5472 23.0515 34.5052 23.0515C34.2321 23.0305 33.9275 23.0934 33.6649 23.1563C31.9107 23.7224 31.2595 24.1627 29.9255 25.2424C29.5999 25.5149 28.4864 26.71 28.4129 27.1188ZM39.5366 29.2154C39.5051 29.4355 39.0429 30.5676 38.9274 30.8926C38.6753 31.6159 38.4232 32.2973 38.1606 33.0101C37.7299 34.2261 37.2047 35.4735 36.669 36.6581C36.4274 37.1613 36.2068 37.6644 35.9232 38.1361C35.314 39.2473 34.7468 40.2012 33.9485 41.1971C32.3414 43.063 30.3667 43.9331 27.8667 43.0001C25.6819 42.2034 24.7155 41.2076 23.1084 39.6876C22.2786 38.9014 23.1294 39.111 22.6568 38.6184C22.4992 38.4506 22.2471 38.3248 22.0265 38.2934C21.7849 38.2619 21.5223 38.2724 21.3963 38.3668C20.9761 38.7232 21.7744 39.5933 22.037 39.8868C22.6778 40.5996 23.6756 41.4697 24.642 42.172C26.3541 43.4299 28.5915 44.4468 30.7973 44.2476C31.6481 44.1113 31.9633 43.996 32.52 43.7025C33.9485 42.9372 34.9149 41.9309 35.7867 40.5577C37.2257 38.3039 38.5282 34.9284 39.19 33.1988L40.7235 29.1944C40.8601 28.8485 41.1647 28.23 41.4378 27.9784C42.6353 26.9196 43.6331 25.9343 44.3789 24.5401C44.631 24.1103 44.5365 23.7119 44.1583 23.4394C43.9693 23.2821 44.0428 23.2716 43.9377 23.0934L43.7277 22.7685C43.6121 22.6217 43.5701 22.6112 43.423 22.475C43.192 22.2863 42.9294 22.1814 42.5617 22.15C42.005 22.0976 41.2172 22.454 40.3874 23.0096C38.6543 24.1732 36.732 26.2173 36.4064 27.2656C36.3854 27.3075 36.3749 27.3494 36.3539 27.4018C36.2173 27.3389 36.1333 27.297 35.8812 27.276C35.5346 27.2551 35.4401 27.3285 35.2825 27.5696C35.0619 27.9574 34.0956 28.3453 33.2027 28.6493C31.9212 29.0791 29.4318 29.7709 28.3604 28.9428C28.2028 28.838 28.0453 28.5864 28.0663 28.3663C28.8961 28.6283 29.5263 28.492 30.3246 28.2614C30.7133 28.1461 31.0599 28.0203 31.5116 27.8526C32.8561 27.2446 34.1586 26.4374 35.1144 25.3158C35.8287 24.4772 36.1228 23.4708 35.419 22.5274C35.1564 22.171 34.7993 21.9299 34.2951 21.9299C34.0115 21.9299 33.7069 21.9823 33.4338 22.0347C32.646 22.2024 31.9317 22.4959 31.27 22.8733C29.7154 23.7538 28.3604 25.0118 27.3835 26.4584C27.1735 26.4584 26.9949 26.385 26.9844 26.4689C26.9424 27.2341 26.8793 27.7897 26.9949 28.3138C27.31 29.7709 28.602 30.4942 30.041 30.5571C31.8687 30.6305 34.085 29.6976 35.6816 28.9952C35.9232 28.8904 36.0598 28.7751 36.2173 28.6807C36.3959 29.729 37.4253 29.9491 38.3707 29.7605C38.7383 29.6242 39.1479 29.446 39.5366 29.2154Z" fill="white"/>
<path fill-rule="evenodd" clip-rule="evenodd" d="M63.2966 25.2005C63.3491 25.169 63.8008 24.5086 63.7903 24.4038C63.5382 24.3304 63.3911 24.3094 63.16 24.3723C62.3722 24.5715 61.4794 25.2424 60.8807 25.777C60.576 26.0496 60.2819 26.3431 60.0614 26.6681C59.8198 26.993 59.6937 27.2656 59.6412 27.6744C59.5992 27.9574 59.6622 28.1147 59.8933 28.0623C60.6601 27.905 61.6264 27.0559 62.1831 26.6052C62.2987 26.4899 62.2672 26.4794 62.2567 26.406C62.2147 26.2487 62.3092 26.1859 62.3827 26.1439C62.4563 26.0915 62.5403 26.0181 62.6243 25.9238C62.8344 25.7036 63.118 25.4311 63.2966 25.2005ZM54.0951 24.7078C54.7569 24.2361 55.6287 23.4708 56.4585 22.6741C56.9417 22.2129 57.4144 21.7412 57.824 21.3009C58.8954 20.1688 59.9353 18.9947 60.9227 17.7892C62.0046 16.4579 63.3701 14.6444 64.2944 13.1453C64.6411 12.5793 65.0822 11.835 65.1768 11.6358C65.3553 11.2375 65.5549 10.7553 65.6705 10.336C65.744 10.1054 65.8175 9.64411 65.8175 9.27722C65.8175 8.72163 65.702 8.7426 65.3343 9.05708C64.4835 9.78039 63.8638 10.336 63.076 11.1536C62.3722 11.8874 61.3008 13.072 60.6916 13.9001C58.9164 16.3321 56.8892 19.0471 55.5762 21.6783C55.2821 22.2548 54.9459 22.8209 54.6728 23.387L54.0951 24.7078ZM48.9482 26.0076C48.9797 25.7561 48.9587 25.7561 48.8747 25.5779C48.6751 25.2634 48.0869 24.8965 47.8453 25.3892C47.6037 25.8609 47.2991 26.3745 46.8684 26.7205C46.2592 27.2027 45.3453 27.9784 44.6521 28.3558C44.2319 28.5864 44.0533 28.5654 44.1059 28.0413C44.1479 27.6639 44.3685 27.1922 44.5995 26.7519C45.0197 25.9657 45.2718 25.6303 45.7445 24.9594C45.923 24.7078 45.9125 24.582 45.6604 24.3409C45.4819 24.1627 45.1563 24.0159 44.9462 24.0683C44.6731 24.1417 44.6941 24.3304 44.5785 24.5715C44.0638 25.6932 43.5492 26.1963 43.234 27.5067C43.129 27.9365 43.129 28.5445 43.3391 28.9847C43.7172 29.7709 44.421 29.6032 45.0932 29.2468C45.6815 28.9323 46.3117 28.4501 46.6163 28.2195C46.7529 28.8485 46.9629 29.4879 47.7297 29.6032C48.2339 29.6871 49.2633 29.1734 50.2612 28.5759C51.2696 27.9679 52.2464 27.2761 52.5825 27.035C52.6876 27.7478 52.7506 28.4396 53.2548 28.9533C53.906 29.5927 54.3682 29.6556 55.03 29.4984C55.6602 29.3412 56.2694 29.1 56.8471 28.8065C57.5404 28.4606 58.1917 28.0413 58.8114 27.5905C58.8954 28.4816 59.3261 29.3726 60.3975 29.0372C60.8912 28.8799 62.0046 28.1985 62.3722 27.8107C62.4037 28.1356 62.3512 28.6493 62.7188 29.1839C63.2966 30.0225 64.1684 30.1274 65.1558 30.0854C66.9204 30.012 68.6956 29.4669 70.3657 28.9009C73.5799 27.8212 76.8677 26.8043 80.2814 26.5423C81.1323 26.4794 82.1617 26.4584 82.9494 26.8148C83.0755 26.8567 83.3381 27.0664 83.4851 27.0874C83.8528 27.1817 84.0209 26.7414 84.0209 26.4584C84.0209 26.2697 83.9578 26.081 83.7898 25.8923C83.6742 25.777 83.5167 25.777 83.3696 25.777C83.191 25.7875 82.9599 25.7141 82.6133 25.6512C81.815 25.494 81.0797 25.515 80.2709 25.5674C76.7206 25.7875 73.2963 26.9406 69.9456 28.0098C68.2964 28.534 67.162 28.8904 65.2293 29.0686C63.9898 29.121 62.9709 29.0581 63.1915 27.6849C63.2545 27.2865 63.4331 26.8777 63.6222 26.5947C63.7062 26.4584 63.8428 26.2383 64.0108 25.9867C64.452 25.3368 65.0822 24.4772 65.3028 24.257C65.3658 24.1836 65.4289 24.1312 65.4814 24.0788C65.9961 23.5861 65.2923 22.6008 64.8932 23.1563L64.5465 23.6176C64.473 23.7119 64.494 23.7119 64.3785 23.7434C64.0108 23.5442 64.0423 23.2821 63.3071 23.2821C62.2672 23.3136 61.0487 24.257 60.2924 24.9384C59.9983 25.211 59.7357 25.4835 59.4101 25.8504C58.7799 26.5423 57.3513 27.4228 56.5005 27.8631C55.6182 28.3138 54.5678 28.7646 54.1476 28.6912C53.801 28.6283 53.6329 28.1461 53.5699 27.6639C53.5174 27.3075 53.5279 26.9616 53.5489 26.7729C53.5804 26.5632 53.5699 26.2487 53.717 26.1649L54.9354 25.1795C56.0909 24.2361 57.0887 23.3345 58.1496 22.2758C58.3807 22.0452 58.6223 21.8041 58.8534 21.563C60.9332 19.4035 63.7062 15.9128 65.3238 13.1663C65.9751 12.0761 66.6998 10.6085 66.6788 9.43446C66.6683 8.9208 66.5108 8.26039 65.9961 7.99832C65.5654 7.77819 65.2293 7.90398 64.9352 8.10315C64.431 8.44908 63.7692 9.07804 63.118 9.75942C62.3932 10.5037 61.6685 11.3109 61.2168 11.835C60.5865 12.5478 60.0298 13.2502 59.4941 13.9525C58.3807 15.4306 57.4354 16.9086 56.3745 18.5544C56.2169 18.785 56.1119 19.0261 55.9543 19.2568C55.4081 20.1583 54.5783 21.6992 53.864 23.1354C53.3283 24.2256 52.8661 25.2529 52.6666 25.9028C52.404 26.123 51.6267 26.6366 50.8074 27.1398C50.6393 27.2446 50.4818 27.3389 50.3137 27.4438C49.6414 27.8526 49.0112 28.209 48.6751 28.3558C48.486 28.4396 48.3705 28.513 48.1919 28.5654C47.8348 28.6703 47.6352 28.7856 47.6982 28.3243C47.7612 27.6744 48.4125 26.3326 48.9482 26.0076Z" fill="white"/>
<path fill-rule="evenodd" clip-rule="evenodd" d="M25.3363 5.6406C24.6115 4.88584 23.7922 4.21495 22.8994 3.6384C21.4918 2.74737 20.1893 2.34902 18.7608 3.42875C16.8491 4.87536 14.3281 7.72666 11.8072 11.3642C12.2484 11.3118 13.1517 11.1964 13.6559 11.144C16.2924 10.84 20.8301 10.253 23.6661 9.55066C25.9665 8.98459 27.0379 7.91535 25.4938 5.81881C25.4308 5.76639 25.3888 5.7035 25.3363 5.6406ZM4.3599 12.2762L0.998644 12.8108C-0.125277 13.7437 0.179337 16.5426 0.925117 17.853C0.967132 17.9264 1.04066 18.0312 1.08268 18.1046C-0.114773 20.7777 -0.69249 23.5975 1.38729 26.0714C2.84734 27.8011 4.67502 29.2372 6.7548 30.275C6.80732 30.3064 6.83883 30.2855 6.82833 30.254C6.82833 30.2226 6.79682 30.1702 6.7548 30.1492C4.90611 29.1429 3.96075 27.1511 4.58049 25.1594C4.79057 24.4885 5.05316 23.7547 5.36828 22.979C5.48383 23.0943 5.64139 23.2306 5.81995 23.3669C6.90186 24.3208 8.15183 25.2852 9.52784 26.1972C12.4584 28.1365 15.3785 29.4678 17.6684 30.0234C19.8847 30.558 22.2901 30.3379 24.1703 29.038C26.4707 27.4551 28.3299 25.3376 29.5484 22.8742C29.6009 22.7589 29.4853 22.5387 29.3068 22.8637C27.3425 26.4907 24.1493 28.6816 19.8322 26.6794C17.3323 25.5263 14.4752 23.5556 11.7547 20.9978C10.3997 19.7399 9.20222 18.44 8.19384 17.1611C8.21485 17.1192 8.24636 17.0668 8.26737 17.0248L9.37028 16.8886C14.7378 16.1024 23.351 15.2113 27.9307 12.5697C29.6219 11.5948 30.0736 10.1272 29.3278 8.72252C26.4287 3.32392 20.4414 -0.261174 13.6979 0.02186C9.84296 0.179101 6.34515 1.58379 3.60362 3.80612C3.16246 4.49798 2.94187 5.34708 2.86835 6.20667C2.77381 7.44363 3.0049 8.70155 3.40405 9.56114C5.1372 5.31563 9.21273 2.1813 14.1076 1.6362C11.7652 3.16668 8.63501 6.32198 5.71491 10.3369C5.23173 10.9868 4.78006 11.6367 4.3599 12.2762Z" fill="white"/>
</g>
<defs>
<clipPath id="clip0">
<rect width="84" height="44.2581" fill="white"/>
</clipPath>
</defs>
</svg>
